Coordinates
version=1
nRows=12
nColumns=33
inDegrees=yes

Units are S.I. units (second, meters, Newtons, ...)
Angles are in degrees.

endheader
time	ground_thorax_rot_x	ground_thorax_rot_y	ground_thorax_rot_z	ground_thorax_tx	ground_thorax_ty	ground_thorax_tz	clav_prot_r	clav_elev_r	scapula_abduction_r	scapula_elevation_r	scapula_upward_rot_r	scapula_winging_r	shoulder_elv_r	plane_of_elev_r	axial_rot_r	elbow_flexion_r	pro_sup_r	wrist_flex_r	wrist_dev_r	clav_prot_l	clav_elev_l	scapula_abduction_l	scapula_elevation_l	scapula_upward_rot_l	scapula_winging_l	shoulder_elv_l	plane_of_elev_l	axial_rot_l	elbow_flexion_l	pro_sup_l	wrist_flex_l	wrist_dev_l
      3.63000000	     26.49075834	     31.60099039	     44.96684025	    -84.55541926	    775.74639207	      6.99084168	     13.84902544	     36.31651796	     33.21555840	     45.00000000	    -45.00000000	  -4758.53515351	  -1552.56842052	    145.95603364	    179.99999979	   2164.60986447	     51.56110179	     21.80182133	     14.04278650	      6.72175439	    -45.00000000	    -36.15506352	     45.00000000	    -45.00000000	   1893.12899541	  -1900.25887983	    141.75945730	    141.08779821	    727.51434295	     20.69226448	      9.95282178	    -18.80168802
      3.64000000	     26.75734261	     31.42996828	     44.56751723	    -85.89009026	    776.16675893	      7.00140572	     13.80750009	     36.19403059	     33.39267596	     45.00000000	    -45.00000000	  -4758.68695497	  -1552.50239829	    145.85785506	    179.99999979	   2164.72728052	     51.41565909	     21.86629925	     13.99910627	      6.75904540	    -45.00000000	    -36.18456498	     45.00000000	    -45.00000000	   1893.18057745	  -1900.07970316	    141.52277357	    141.46078707	    727.62276381	     20.55829786	      9.94760376	    -18.85807819
      3.65000000	     26.99063014	     31.30049605	     44.19584191	    -87.32994917	    776.57105545	      7.06888602	     13.84385175	     36.30806196	     33.41559368	     45.00000000	    -45.00000000	  -4758.71884088	  -1552.24094754	    145.80854347	    179.99999979	   2164.95017089	     51.27757562	     21.97328444	     14.10971801	      6.69635724	    -45.00000000	    -36.25008389	     45.00000000	    -45.00000000	   1893.13791534	  -1899.89800885	    141.39879890	    141.94339895	    727.74520800	     20.39170045	      9.87188828	    -18.90485143
      3.66000000	     27.32018961	     31.05101309	     43.69363720	    -88.86991063	    776.96942525	      7.18194611	     13.82005055	     36.23071117	     33.57083624	     45.00000000	    -45.00000000	  -4758.82526667	  -1552.09588759	    145.70179593	    179.99999979	   2165.16858545	     51.11042698	     22.05630609	     14.07194327	      6.70879046	    -45.00000000	    -36.30705996	     45.00000000	    -45.00000000	   1893.17445204	  -1899.68475621	    141.13759942	    142.38311171	    727.86234212	     20.22420287	      9.87233763	    -18.96156474
      3.67000000	     27.60592730	     30.87160849	     43.23136599	    -90.51627253	    777.37417807	      7.33129078	     13.85868138	     36.31396404	     33.59493665	     45.00000000	    -45.00000000	  -4758.87313276	  -1551.80781182	    145.64050255	    179.99999979	   2165.48172555	     50.95056867	     22.18359937	     14.17554106	      6.63896938	    -45.00000000	    -36.37526691	     45.00000000	    -45.00000000	   1893.12822828	  -1899.45780080	    140.98162837	    142.93872524	    727.99796579	     20.01601258	      9.78350064	    -19.00711483
      3.68000000	     27.94426835	     30.63321953	     42.66854734	    -92.24412036	    777.82722470	      7.46341831	     13.85428475	     36.23570399	     33.77224293	     45.00000000	    -45.00000000	  -4758.99893771	  -1551.64353753	    145.56440243	    179.99999979	   2165.70676800	     50.76500258	     22.25074762	     14.11184016	      6.65533247	    -45.00000000	    -36.42987009	     45.00000000	    -45.00000000	   1893.15883007	  -1899.28597545	    140.71808489	    143.45315565	    728.10166306	     19.81126668	      9.79633706	    -19.05492872
      3.69000000	     28.21047088	     30.45634136	     42.30519637	    -94.04881097	    778.33351937	      7.57303586	     13.90300701	     36.36867941	     33.79055136	     45.00000000	    -45.00000000	  -4759.02209407	  -1551.32123994	    145.50490261	    179.99999979	   2165.99366987	     50.58826733	     22.36086063	     14.19410968	      6.59611237	    -45.00000000	    -36.46062321	     45.00000000	    -45.00000000	   1893.11545041	  -1899.07832627	    140.63622612	    144.06050800	    728.18307318	     19.57434326	      9.72558852	    -19.08697892
      3.70000000	     28.47231886	     30.27680898	     41.93890203	    -95.90911151	    778.92530188	      7.61858525	     13.93668019	     36.30621486	     33.95294468	     45.00000000	    -45.00000000	  -4759.13419927	  -1551.14486971	    145.51006409	    179.99999979	   2166.18401867	     50.37416525	     22.37774354	     14.09619532	      6.65419707	    -45.00000000	    -36.44170236	     45.00000000	    -45.00000000	   1893.15272877	  -1898.97794702	    140.48684510	    144.59624219	    728.19176207	     19.33608441	      9.72206307	    -19.09950177
      3.71000000	     28.70572973	     30.12022606	     41.57026587	    -97.82322555	    779.59396604	      7.61099157	     13.94818832	     36.37562166	     34.02146777	     45.00000000	    -45.00000000	  -4759.24327254	  -1550.93633476	    145.44615213	    179.99999979	   2166.44646200	     50.16427374	     22.47531533	     14.11252261	      6.64249463	    -45.00000000	    -36.44715732	     45.00000000	    -45.00000000	   1893.18876521	  -1898.78100115	    140.35532222	    145.11287536	    728.30122530	     19.06007416	      9.66591555	    -19.13239069
      3.72000000	     28.92282783	     29.96138594	     41.19013939	    -99.78956260	    780.33233817	      7.55969562	     13.97403890	     36.38051438	     34.13045655	     45.00000000	    -45.00000000	  -4759.36913800	  -1550.79662597	    145.38974664	    179.99999979	   2166.62296768	     49.95323327	     22.53050696	     14.07124122	      6.65929632	    -45.00000000	    -36.46298864	     45.00000000	    -45.00000000	   1893.24835158	  -1898.56624416	    140.19281416	    145.58816248	    728.39799825	     18.77478805	      9.63471436	    -19.15967389
      3.73000000	     29.07791697	     29.84853755	     40.83163318	   -101.83024184	    781.10743015	      7.51169153	     13.99888579	     36.38846741	     34.17841605	     45.00000000	    -45.00000000	  -4759.44881460	  -1550.64423713	    145.38176493	    179.99999979	   2166.78949108	     49.73797961	     22.57744855	     14.04947663	      6.66710662	    -45.00000000	    -36.51584228	     45.00000000	    -45.00000000	   1893.26974853	  -1898.29056569	    140.08076563	    146.06650801	    728.57388448	     18.45273273	      9.60862743	    -19.19944244
      3.74000000	     29.33937787	     29.65264734	     40.35469806	   -103.94277138	    781.91958377	      7.46831356	     13.99521531	     36.40972290	     34.31127282	     45.00000000	    -45.00000000	  -4759.61063755	  -1550.49155397	    145.28610103	    179.99999979	   2166.99867786	     49.52767240	     22.65038238	     14.01537287	      6.66317504	    -45.00000000	    -36.55248012	     45.00000000	    -45.00000000	   1893.34972912	  -1898.04757701	    139.87177946	    146.49833403	    728.70790300	     18.12311801	      9.55506894	    -19.23356544
